<?xml version="1.0" encoding="UTF-8"?>
<svg id="Layer_1" data-name="Layer 1" xmlns="http://www.w3.org/2000/svg" viewBox="0 0 559.69 542.99">
  <path d="m-7.2,216.98h614.05c19.06,0,34.53,15.47,34.53,34.53h0c0,41.11-33.38,74.49-74.49,74.49H-47.16c-19.06,0-34.53-15.47-34.53-34.53h0c0-41.11,33.38-74.49,74.49-74.49Z" transform="translate(273.94 -118.36) rotate(45)" style="fill: #00df9a;"/>
  <path d="m551.34,79.02c0,43.64-35.38,151.78-79.02,151.78s-79.02-108.14-79.02-151.78S428.67,0,472.32,0s79.02,35.38,79.02,79.02Z" style="fill: #00df9a;"/>
  <path d="m8.35,463.97c0-43.64,35.38-151.78,79.02-151.78s79.02,108.14,79.02,151.78-35.38,79.02-79.02,79.02S8.35,507.61,8.35,463.97Z" style="fill: #00df9a;"/>
</svg>